<svg width="1200" height="520" viewBox="0 0 1200 520" fill="none" xmlns="http://www.w3.org/2000/svg" role="img" aria-labelledby="title desc">
  <title id="title">lyric-jl automation command center</title>
  <desc id="desc">A dark neon command center interface for automation systems and bot infrastructure.</desc>
  <defs>
    <linearGradient id="bg" x1="0" y1="0" x2="1200" y2="520" gradientUnits="userSpaceOnUse">
      <stop offset="0" stop-color="#020617"/>
      <stop offset="0.46" stop-color="#07111f"/>
      <stop offset="1" stop-color="#0f0624"/>
    </linearGradient>
    <linearGradient id="cyanPurple" x1="120" y1="80" x2="1080" y2="430" gradientUnits="userSpaceOnUse">
      <stop stop-color="#22d3ee"/>
      <stop offset="0.52" stop-color="#3b82f6"/>
      <stop offset="1" stop-color="#a855f7"/>
    </linearGradient>
    <linearGradient id="panel" x1="0" y1="0" x2="1" y2="1">
      <stop stop-color="#0f172a" stop-opacity="0.96"/>
      <stop offset="1" stop-color="#111827" stop-opacity="0.78"/>
    </linearGradient>
    <radialGradient id="glow" cx="50%" cy="50%" r="50%">
      <stop stop-color="#38bdf8" stop-opacity="0.34"/>
      <stop offset="0.45" stop-color="#6366f1" stop-opacity="0.16"/>
      <stop offset="1" stop-color="#020617" stop-opacity="0"/>
    </radialGradient>
    <filter id="softGlow" x="-40%" y="-40%" width="180%" height="180%">
      <feGaussianBlur stdDeviation="8" result="blur"/>
      <feColorMatrix in="blur" type="matrix" values="0 0 0 0 0.1 0 0 0 0 0.75 0 0 0 0 1 0 0 0 0.7 0"/>
      <feBlend in="SourceGraphic" mode="screen"/>
    </filter>
    <pattern id="grid" width="34" height="34" patternUnits="userSpaceOnUse">
      <path d="M34 0H0V34" stroke="#334155" stroke-opacity="0.2" stroke-width="1"/>
    </pattern>
    <style>
      .mono { font-family: ui-monospace, SFMono-Regular, Menlo, Monaco, Consolas, "Liberation Mono", "Courier New", monospace; }
      .sans { font-family: Inter, ui-sans-serif, system-ui, -apple-system, BlinkMacSystemFont, "Segoe UI", sans-serif; }
      .scan { animation: scan 4.8s linear infinite; }
      .pulse { animation: pulse 2.6s ease-in-out infinite; }
      @keyframes scan {
        0% { transform: translateY(-260px); opacity: 0; }
        12% { opacity: .85; }
        72% { opacity: .85; }
        100% { transform: translateY(540px); opacity: 0; }
      }
      @keyframes pulse {
        0%,100% { opacity: .42; }
        50% { opacity: 1; }
      }
    </style>
  </defs>

  <rect width="1200" height="520" rx="28" fill="url(#bg)"/>
  <rect width="1200" height="520" rx="28" fill="url(#grid)"/>
  <circle cx="850" cy="168" r="330" fill="url(#glow)"/>
  <circle cx="226" cy="412" r="240" fill="#7c3aed" opacity="0.08"/>

  <g opacity="0.75">
    <path d="M78 92H304L372 160H523" stroke="url(#cyanPurple)" stroke-width="2"/>
    <path d="M1079 424H912L842 354H665" stroke="url(#cyanPurple)" stroke-width="2"/>
    <path d="M1006 96H850L790 156H654" stroke="#22d3ee" stroke-opacity="0.6" stroke-width="2"/>
  </g>
  <g filter="url(#softGlow)">
    <circle cx="372" cy="160" r="5" fill="#22d3ee"/>
    <circle cx="842" cy="354" r="5" fill="#a855f7"/>
    <circle cx="790" cy="156" r="4" fill="#60a5fa"/>
  </g>

  <g transform="translate(70 62)">
    <rect x="0" y="0" width="1060" height="396" rx="20" fill="#020617" fill-opacity="0.64" stroke="#334155"/>
    <rect x="20" y="22" width="1020" height="352" rx="14" fill="#020817" fill-opacity="0.78" stroke="#1e293b"/>
    <path class="scan" d="M22 0H1038V64H22V0Z" fill="url(#cyanPurple)" opacity="0.12"/>

    <g transform="translate(52 54)">
      <text class="mono" x="0" y="0" fill="#38bdf8" font-size="15" letter-spacing="2">SYSTEM ONLINE</text>
      <text class="sans" x="0" y="70" fill="#f8fafc" font-size="74" font-weight="800" letter-spacing="3">LYRIC-JL</text>
      <text class="mono" x="4" y="112" fill="#c4b5fd" font-size="20">automation / bot infrastructure / production ops</text>
      <rect x="4" y="148" width="430" height="46" rx="10" fill="#0f172a" stroke="#1e293b"/>
      <text class="mono" x="24" y="177" fill="#94a3b8" font-size="15">&gt; deploy --target=quiet-systems --mode=resilient</text>
      <g transform="translate(4 224)">
        <rect width="134" height="34" rx="17" fill="#082f49" stroke="#0ea5e9"/>
        <text class="mono" x="24" y="22" fill="#bae6fd" font-size="13">PYTHON</text>
        <rect x="148" width="146" height="34" rx="17" fill="#172554" stroke="#3b82f6"/>
        <text class="mono" x="171" y="22" fill="#bfdbfe" font-size="13">TYPESCRIPT</text>
        <rect x="308" width="122" height="34" rx="17" fill="#312e81" stroke="#8b5cf6"/>
        <text class="mono" x="333" y="22" fill="#ddd6fe" font-size="13">DOCKER</text>
      </g>
    </g>

    <g transform="translate(635 70)">
      <rect width="350" height="236" rx="18" fill="url(#panel)" stroke="#334155"/>
      <rect x="22" y="22" width="306" height="34" rx="9" fill="#0b1220"/>
      <circle cx="43" cy="39" r="5" fill="#ef4444"/>
      <circle cx="61" cy="39" r="5" fill="#f59e0b"/>
      <circle cx="79" cy="39" r="5" fill="#22c55e"/>
      <text class="mono" x="104" y="44" fill="#94a3b8" font-size="13">ops-console</text>

      <g transform="translate(28 84)">
        <text class="mono" x="0" y="0" fill="#38bdf8" font-size="14">pipeline.status</text>
        <text class="mono" x="232" y="0" fill="#22c55e" font-size="14">STABLE</text>
        <rect x="0" y="18" width="294" height="10" rx="5" fill="#172033"/>
        <rect x="0" y="18" width="238" height="10" rx="5" fill="url(#cyanPurple)"/>

        <text class="mono" x="0" y="62" fill="#38bdf8" font-size="14">bot.latency</text>
        <text class="mono" x="232" y="62" fill="#f8fafc" font-size="14">LOW</text>
        <rect x="0" y="80" width="294" height="10" rx="5" fill="#172033"/>
        <rect x="0" y="80" width="92" height="10" rx="5" fill="#22d3ee"/>

        <text class="mono" x="0" y="124" fill="#38bdf8" font-size="14">server.load</text>
        <text class="mono" x="232" y="124" fill="#f8fafc" font-size="14">41%</text>
        <rect x="0" y="142" width="294" height="10" rx="5" fill="#172033"/>
        <rect x="0" y="142" width="120" height="10" rx="5" fill="#a855f7"/>
      </g>
    </g>

    <g transform="translate(52 326)" opacity="0.95">
      <circle class="pulse" cx="8" cy="8" r="8" fill="#22c55e"/>
      <text class="mono" x="28" y="13" fill="#cbd5e1" font-size="14">watching repeated work disappear into background systems</text>
    </g>
  </g>
</svg>
